<?xml version="1.0" encoding="utf-8"?>
<!-- Generator: Adobe Illustrator 25.2.3, SVG Export Plug-In . SVG Version: 6.00 Build 0)  -->
<svg version="1.1" id="Ebene_1" xmlns="http://www.w3.org/2000/svg" xmlns:xlink="http://www.w3.org/1999/xlink" x="0px" y="0px"
	 width="1148.7px" height="158.9px" viewBox="0 0 1148.7 158.9" style="enable-background:new 0 0 1148.7 158.9;"
	 xml:space="preserve">
<style type="text/css">
	.st0{fill:#666666;}
	.st1{fill:#377CB7;}
	.st2{fill:#1A1A1A;}
	.st3{fill:#387CB7;}
	.st4{fill:#333333;}
	.st5{fill:#289E4F;}
	.st6{fill:#FE8026;}
</style>
<g>
	<g>
		<path class="st0" d="M117.9,149c0-0.3,0.1-0.9,0.2-2c0.2-1.6,0.7-4,1.3-7c1-4.4,1.7-8.2,2.3-11.4c-12.9,9.5-24.4,14.3-34.6,14.3
			c-6.9,0-12.3-2-16.4-6s-6.1-9.5-6.1-16.4c0-11,3.4-21.5,10-31.6l1.5-2c-2.1-3-4.9-9.2-8.6-19.1c-4.1-10.7-6.3-16.9-6.7-18.8
			L46.6,74.8C38.7,89,33.5,96,30.9,96c-1.9,0-3.5-0.5-4.8-1.4c-1.3-0.9-2.6-2.7-3.8-5.3c-1.2-2.7-2.9-8.6-4.9-17.7
			s-3.9-18.4-5.6-27.8c-0.3-1.5-0.5-3-0.8-4.5C4,51.1,0,64.9,0,79.4c0,43.9,35.6,79.4,79.4,79.4c13.6,0,26.3-3.4,37.5-9.4L117.9,149
			z"/>
		<path class="st1" d="M105.3,4.3C105.3,4.3,106.2,4.6,105.3,4.3c-0.6,1.1-1.2,4.5-1.2,6c-2.2,21.8-8.8,43.1-19.8,63.9
			c-0.4-0.3-2.7-5.9-6.9-16.9L72.7,45c-0.3-0.6-0.5-1.1-0.6-1.6c-2.7-7-4.6-11.3-5.7-13c-1.1-1.7-2.5-2.5-4.2-2.5
			c-1.3,0-2.5,0.4-3.7,1.2c-1.2,0.8-2.1,1.7-2.6,2.6c-4.5,9.7-8,16.6-10.3,20.8s-7.1,12-14.2,23.4c-0.5-1-1.5-6.1-3-15.3
			c-0.5-2.8-1.1-6.1-1.8-10c-0.7-3.8-1.3-7.3-1.8-10.5l-1.5-9.7c-0.1-1.4-0.4-3.4-1-6.1C36.9,9.3,57.2,0,79.4,0
			c8.9,0,17.5,1.5,25.5,4.2L105.3,4.3z"/>
		<path class="st2" d="M116.7,9.3c0.4,1,0.6,2.2,0.6,3.4c0,3.8-1,9.8-3.1,18S109,47.8,105,57.3l-1.7,4l-0.8,1
			c0.1-0.1,0.3-0.2,0.4-0.2c8.4-4.7,16.8-7,25.3-7c5,0,8.9,0.9,11.8,2.7c2.9,1.8,4.3,4.1,4.3,6.9c0,2.3-1,4.9-3,7.8
			c-2,2.8-4,4.3-6,4.3c-1.3,0-2.2-0.3-2.8-0.8s-1.2-1.5-1.9-3.1c-0.7-1.7-1.6-2.9-2.5-3.7c-0.9-0.7-2.3-1.1-4.1-1.1
			c-5.8,0-12.5,2.9-20,8.6S90.4,89.2,85.7,97.1s-7,15.4-7,22.5c0,7.5,3.2,11.3,9.7,11.3c3.3,0,7.3-0.9,12-2.6
			c4.6-1.7,9.6-4.4,14.9-8.1s8.4-7.1,9.5-10.1s1.9-6.4,2.4-10c0.3-2.2,1.1-3.6,2.4-4.3c1.3-0.7,3-1.1,5.2-1.1c5,0,7.6,1.7,7.6,5.1
			c0,1.3-0.7,3.5-2,6.6c-1,2.3-2,5.1-2.9,8.4h0.1c-0.9,3.2-1.8,7.4-2.8,12.7c-0.8,4.4-1.2,7.8-1.3,10.2
			c15.6-14.5,25.4-35.3,25.4-58.3C158.9,49,141.9,22.6,116.7,9.3z"/>
	</g>
	<g>
		<g>
			<path class="st2" d="M418.5,44.3c2.7,3.6,5.4,7.3,8.1,11.2s5.2,7.6,7.6,11.1V26.2h-31c2.2,2.2,4.6,4.8,7.2,8
				C413.1,37.3,415.8,40.7,418.5,44.3z"/>
			<path class="st2" d="M405.9,49.8v44.8h30.7c-4.4-7.8-9.2-15.6-14.3-23.2C417.2,63.8,411.7,56.6,405.9,49.8z"/>
			<path class="st2" d="M740.5,44.3c2.7,3.6,5.4,7.3,8.1,11.2c2.7,3.9,5.2,7.6,7.6,11.1V26.2h-31c2.2,2.2,4.6,4.8,7.2,8
				C735.1,37.3,737.7,40.7,740.5,44.3z"/>
			<path class="st2" d="M727.9,49.8v44.8h30.7c-4.4-7.8-9.2-15.6-14.3-23.2C739.1,63.8,733.7,56.6,727.9,49.8z"/>
			<path class="st2" d="M254.1,38.3c-0.8,4.2-1.5,8.4-2.3,12.6s-1.6,8.3-2.5,12.2s-1.8,7.6-2.6,11c-1.1-3.1-2.1-6.4-3.3-10.1
				c-1.1-3.6-2.2-7.2-3.3-10.9C239,49.5,238,46,237,42.6s-1.8-6.4-2.6-9.1h-13.1c-0.7,2.6-1.5,5.6-2.4,9S217,49.3,216,53
				c-1.1,3.6-2.1,7.2-3.3,10.9c-1.1,3.6-2.3,7-3.5,10.3c-0.9-3.4-1.8-7-2.7-11c-0.9-3.9-1.8-8-2.6-12.2c-0.9-4.2-1.7-8.4-2.5-12.6
				s-1.5-8.2-2.2-12.1h-16.7c2.3,11.5,5,23.1,8,34.8c3,11.8,6.3,23,9.8,33.6h14.1c2.3-6.3,4.5-12.9,6.6-19.9
				c2.1-6.9,4.2-13.9,6.3-20.9c2.1,7,4.2,13.9,6.4,20.9c2.2,6.9,4.4,13.6,6.7,19.9h14.1c3.5-10.6,6.8-21.8,9.8-33.6s5.7-23.4,8-34.8
				h-16C255.6,30.1,254.9,34.1,254.1,38.3z"/>
			<polygon class="st2" points="295.8,65.2 323.1,65.2 323.1,52.5 295.8,52.5 295.8,39.1 326.6,39.1 326.6,26.2 280.4,26.2 
				280.4,94.6 328.8,94.6 328.8,81.7 295.8,81.7 			"/>
			<path class="st2" d="M386.3,79.4c-1.5-2.4-3-4.7-4.5-6.9c-1.5-2.2-3-4.2-4.3-5.9c4.1-1.7,7.3-4.1,9.5-7.1s3.3-6.9,3.3-11.7
				c0-7.7-2.7-13.4-8.2-17c-5.5-3.7-13.3-5.5-23.6-5.5c-2.8,0-6,0.1-9.6,0.4s-7.1,0.7-10.4,1.4v67.4h15.4v-25h7.6
				c1.3,1.6,2.6,3.3,4,5.3c1.3,1.9,2.7,4,4,6.2c1.4,2.2,2.7,4.4,4,6.7c1.3,2.3,2.6,4.6,3.8,6.8h17.2c-1.2-2.5-2.5-5.1-3.9-7.7
				C389.3,84.3,387.8,81.8,386.3,79.4z M370.7,55.2c-2.5,1.4-6.6,2.2-12.4,2.2H354V38.8c0.8-0.1,1.6-0.1,2.5-0.2
				c0.9-0.1,1.9-0.1,3-0.1c4.9,0,8.7,0.7,11.2,2.1c2.5,1.4,3.8,3.8,3.8,7.2C374.4,51.3,373.2,53.8,370.7,55.2z"/>
			<polygon class="st2" points="462.1,65.2 489.5,65.2 489.5,52.5 462.1,52.5 462.1,39.1 492.9,39.1 492.9,26.2 446.7,26.2 
				446.7,94.6 495.2,94.6 495.2,81.7 462.1,81.7 			"/>
			<path class="st2" d="M552.7,79.4c-1.5-2.4-3-4.7-4.5-6.9c-1.5-2.2-3-4.2-4.3-5.9c4.1-1.7,7.3-4.1,9.5-7.1s3.3-6.9,3.3-11.7
				c0-7.7-2.7-13.4-8.2-17c-5.5-3.7-13.3-5.5-23.6-5.5c-2.8,0-6,0.1-9.6,0.4c-3.6,0.3-7.1,0.7-10.4,1.4v67.4h15.4v-25h7.6
				c1.3,1.6,2.6,3.3,4,5.3c1.3,1.9,2.7,4,4,6.2c1.4,2.2,2.7,4.4,4,6.7c1.3,2.3,2.6,4.6,3.8,6.8h17.2c-1.2-2.5-2.5-5.1-3.9-7.7
				C555.6,84.3,554.2,81.8,552.7,79.4z M537,55.2c-2.5,1.4-6.6,2.2-12.4,2.2h-4.3V38.8c0.8-0.1,1.6-0.1,2.5-0.2
				c0.9-0.1,1.9-0.1,3-0.1c4.9,0,8.7,0.7,11.2,2.1c2.5,1.4,3.8,3.8,3.8,7.2C540.8,51.3,539.5,53.8,537,55.2z"/>
			<path class="st2" d="M630.6,82.3c-0.9,0.2-2,0.3-3.2,0.4s-2.7,0.1-4.4,0.1c-3.2,0-5.9-0.5-8.3-1.6c-2.4-1.1-4.3-2.6-5.9-4.6
				c-1.6-2-2.8-4.3-3.6-7.1c-0.8-2.7-1.2-5.8-1.2-9.1c0-6.9,1.6-12.4,4.8-16.3c3.2-4,8.4-6,15.5-6c3.2,0,6.2,0.4,8.9,1.2
				s5.1,1.8,7.3,2.9l4.4-12.3c-0.5-0.3-1.4-0.8-2.6-1.4c-1.2-0.6-2.8-1.2-4.6-1.7c-1.9-0.6-4.1-1.1-6.7-1.5
				c-2.6-0.4-5.5-0.6-8.7-0.6c-4.7,0-9.2,0.8-13.4,2.4s-7.8,3.9-10.9,7c-3.1,3.1-5.5,6.8-7.3,11.2s-2.7,9.5-2.7,15.2
				s0.8,10.7,2.4,15.1c1.6,4.4,3.9,8.1,6.9,11.2c3,3,6.5,5.3,10.7,6.9s8.8,2.4,14,2.4c6,0,11-0.4,15.1-1.2c4.1-0.8,7-1.6,8.9-2.3
				V58.5h-15.4V82.3z"/>
			<path class="st2" d="M698.3,67.4c0,5.5-1.2,9.4-3.5,11.7s-5.4,3.5-9.1,3.5c-1.8,0-3.5-0.3-5.1-0.8c-1.5-0.5-2.9-1.4-3.9-2.6
				c-1.1-1.2-1.9-2.8-2.6-4.7c-0.6-1.9-0.9-4.3-0.9-7.1V26.2h-15.4v42.6c0,4,0.5,7.7,1.6,11s2.8,6.2,5,8.6c2.3,2.4,5.1,4.3,8.6,5.6
				c3.5,1.3,7.6,2,12.4,2c4.9,0,9.1-0.7,12.6-2c3.6-1.3,6.5-3.2,8.8-5.6s4-5.3,5.1-8.6c1.1-3.4,1.7-7,1.7-11.1V26.2h-15.4v41.2
				H698.3z"/>
			<path class="st2" d="M820.1,33.6c-3.4-2.8-7.5-4.9-12.3-6.2s-10.1-2-15.9-2c-2.8,0-6.1,0.1-9.9,0.3c-3.9,0.2-7.6,0.7-11.1,1.3
				v66.6c3.6,0.7,7.2,1.2,10.9,1.4c3.7,0.2,6.9,0.3,9.7,0.3c6.1,0,11.5-0.7,16.4-2.2c4.9-1.4,9-3.6,12.4-6.5s6-6.5,7.8-11
				c1.8-4.4,2.8-9.6,2.8-15.5c0-6.2-0.9-11.5-2.8-15.9C826.1,40,823.5,36.4,820.1,33.6z M809.3,76.4c-3.7,3.9-9.4,5.8-17.1,5.8
				c-1.3,0-2.5,0-3.4,0c-1,0-1.8-0.1-2.5-0.1V38.8c1-0.1,2-0.2,3.2-0.2c1.1,0,2.2,0,3.3,0c7.7,0,13.3,1.8,16.9,5.5
				c3.6,3.7,5.3,9.1,5.3,16.3C814.9,67.2,813,72.5,809.3,76.4z"/>
			<path class="st2" d="M887.7,56.5c-2.2-5.5-4.4-10.8-6.6-15.7c-2.2-5-4.4-9.8-6.6-14.6h-14.6c-2.3,4.7-4.5,9.6-6.7,14.6
				c-2.1,5-4.3,10.2-6.5,15.7s-4.5,11.4-6.8,17.7s-4.8,13.1-7.3,20.4h16c0.7-2.4,1.6-4.8,2.4-7.3c0.9-2.5,1.7-5,2.6-7.5h26.7
				c0.9,2.5,1.7,5,2.6,7.5c0.9,2.5,1.7,4.9,2.5,7.3h16.5c-2.6-7.4-5-14.2-7.3-20.4C892.2,67.9,889.9,62,887.7,56.5z M857,67.5
				c1.1-3,2.1-5.8,3.2-8.5c1-2.7,2-5.2,2.8-7.4s1.6-4.2,2.3-5.9s1.2-3.1,1.5-4.1c0.4,1,0.9,2.3,1.6,4c0.7,1.7,1.4,3.7,2.3,5.9
				c0.9,2.2,1.8,4.7,2.8,7.4s2,5.5,3,8.5L857,67.5L857,67.5z"/>
			<path class="st2" d="M953.5,79.8c-1.1,0.5-2.3,0.9-3.7,1.2c-1.4,0.4-3,0.7-4.7,0.9c-1.8,0.3-3.8,0.4-6,0.4
				c-3.6,0-6.6-0.6-9.1-1.7c-2.5-1.2-4.5-2.7-6.1-4.7c-1.5-2-2.7-4.3-3.4-7.1c-0.7-2.7-1-5.7-1-8.8c0-3.9,0.5-7.3,1.6-10.1
				c1.1-2.8,2.5-5,4.2-6.8c1.7-1.7,3.8-3,6-3.8c2.3-0.8,4.6-1.2,7-1.2c3.6,0,6.7,0.4,9.5,1.2s5.2,1.7,7.4,2.9l4.4-12.4
				c-0.5-0.3-1.4-0.8-2.6-1.4c-1.2-0.6-2.7-1.2-4.4-1.7c-1.8-0.6-3.9-1.1-6.2-1.5c-2.4-0.4-5-0.6-7.9-0.6c-5,0-9.6,0.8-13.9,2.4
				c-4.3,1.6-8,3.9-11.1,7s-5.5,6.8-7.3,11.3s-2.7,9.5-2.7,15.2c0,11.4,2.9,20.2,8.7,26.4s14.3,9.3,25.4,9.3c5.2,0,9.8-0.5,13.7-1.6
				s7-2.2,9.2-3.6l-4.2-12.3C955.5,78.9,954.5,79.3,953.5,79.8z"/>
			<path class="st2" d="M996.9,57.6c5.2-5.2,10.2-10.3,14.9-15.5c4.7-5.1,9.4-10.4,14.1-16h-18.3c-3.5,3.9-7.2,8.1-11.3,12.7
				c-4.1,4.5-8.1,8.9-12.1,13.1V26.2h-15.4v68.4h15.4v-29c2.4,1.8,4.7,4,7.1,6.4c2.4,2.4,4.6,4.9,6.8,7.6c2.2,2.6,4.2,5.2,6.1,7.8
				c1.9,2.6,3.5,5,4.9,7.2h18.3c-4.7-7.6-9.6-14.5-14.7-20.7C1007.7,67.6,1002.4,62.2,996.9,57.6z"/>
			<polygon class="st2" points="1050,65.2 1077.4,65.2 1077.4,52.5 1050,52.5 1050,39.1 1080.8,39.1 1080.8,26.2 1034.6,26.2 
				1034.6,94.6 1083.1,94.6 1083.1,81.7 1050,81.7 			"/>
			<path class="st2" d="M1144.9,86.9c-1.4-2.6-2.8-5.1-4.3-7.5s-3-4.7-4.5-6.9c-1.5-2.2-3-4.2-4.3-5.9c4.1-1.7,7.3-4.1,9.5-7.1
				s3.3-6.9,3.3-11.7c0-7.7-2.7-13.4-8.2-17c-5.5-3.7-13.3-5.5-23.6-5.5c-2.8,0-6,0.1-9.6,0.4s-7.1,0.7-10.4,1.4v67.4h15.4v-25h7.6
				c1.3,1.6,2.6,3.3,4,5.3c1.3,1.9,2.7,4,4,6.2c1.4,2.2,2.7,4.4,4,6.7c1.3,2.3,2.6,4.6,3.8,6.8h17.2
				C1147.6,92.1,1146.3,89.5,1144.9,86.9z M1124.9,55.2c-2.5,1.4-6.6,2.2-12.4,2.2h-4.3V38.8c0.8-0.1,1.6-0.1,2.5-0.2
				c0.9-0.1,1.9-0.1,3-0.1c4.9,0,8.7,0.7,11.2,2.1c2.5,1.4,3.8,3.8,3.8,7.2C1128.7,51.3,1127.4,53.8,1124.9,55.2z"/>
		</g>
		<g>
			<path class="st3" d="M193.7,115.1c3.2,0,5.7,0.6,7.3,1.9s2.4,3,2.4,5.3c0,1.3-0.2,2.4-0.7,3.3s-1.1,1.7-2,2.2
				c-0.9,0.6-1.9,1-3.2,1.2c-1.2,0.3-2.7,0.4-4.2,0.4h-3.1v8.9h-2.3v-22.5c0.8-0.2,1.7-0.4,2.8-0.5
				C191.8,115.1,192.8,115.1,193.7,115.1z M193.8,117c-0.8,0-1.6,0-2.1,0.1c-0.6,0.1-1.1,0.1-1.5,0.1v10.1h2.8
				c1.2,0,2.3-0.1,3.3-0.2s1.8-0.4,2.5-0.8s1.2-0.9,1.6-1.6c0.4-0.7,0.6-1.6,0.6-2.6s-0.2-1.9-0.6-2.5c-0.4-0.7-0.9-1.2-1.6-1.6
				c-0.7-0.4-1.4-0.7-2.3-0.8S194.7,117,193.8,117z"/>
			<path class="st3" d="M222.2,122.1c0,1.7-0.5,3.1-1.4,4.1s-2.1,1.7-3.6,2.2c0.4,0.4,0.8,1,1.4,1.8c0.6,0.8,1.1,1.6,1.7,2.5
				c0.6,0.9,1.2,1.8,1.8,2.8s1.1,1.9,1.5,2.8h-2.4c-0.5-0.9-1-1.8-1.5-2.6c-0.5-0.9-1.1-1.7-1.7-2.6c-0.6-0.8-1.1-1.6-1.6-2.3
				c-0.5-0.7-1-1.3-1.4-1.9c-0.7,0.1-1.4,0.1-2.1,0.1h-3.7v9.3H207v-22.5c0.8-0.2,1.7-0.4,2.8-0.5s2.1-0.1,3-0.1
				c3.2,0,5.5,0.6,7.1,1.8C221.4,118,222.2,119.8,222.2,122.1z M213,117c-0.8,0-1.6,0-2.2,0.1c-0.6,0.1-1.2,0.1-1.6,0.1v9.8h3.1
				c1,0,2,0,2.9-0.1s1.7-0.3,2.4-0.7c0.7-0.3,1.2-0.8,1.6-1.5c0.4-0.6,0.6-1.5,0.6-2.6c0-1-0.2-1.9-0.6-2.5s-0.9-1.2-1.6-1.6
				c-0.6-0.4-1.4-0.7-2.2-0.8S213.9,117,213,117z"/>
			<path class="st3" d="M247.4,126.7c0,2-0.3,3.7-0.9,5.2c-0.6,1.5-1.4,2.8-2.3,3.8c-1,1-2.1,1.8-3.4,2.3c-1.3,0.5-2.7,0.8-4.1,0.8
				c-1.5,0-2.8-0.3-4.1-0.8s-2.4-1.3-3.4-2.3s-1.8-2.3-2.3-3.8c-0.6-1.5-0.9-3.2-0.9-5.2s0.3-3.7,0.9-5.2c0.6-1.5,1.4-2.7,2.3-3.7
				c1-1,2.1-1.8,3.4-2.3c1.3-0.5,2.7-0.8,4.1-0.8c1.5,0,2.8,0.3,4.1,0.8s2.4,1.3,3.4,2.3s1.8,2.3,2.3,3.7
				C247.2,123,247.4,124.7,247.4,126.7z M245.1,126.7c0-1.5-0.2-2.9-0.6-4.2c-0.4-1.2-1-2.3-1.7-3.1c-0.7-0.9-1.6-1.5-2.6-2
				s-2.2-0.7-3.5-0.7s-2.4,0.2-3.5,0.7c-1,0.5-1.9,1.1-2.6,2c-0.7,0.9-1.3,1.9-1.7,3.1s-0.6,2.6-0.6,4.2c0,1.5,0.2,2.9,0.6,4.2
				c0.4,1.2,1,2.3,1.7,3.1c0.7,0.9,1.6,1.5,2.6,2s2.2,0.7,3.5,0.7s2.4-0.2,3.5-0.7c1-0.5,1.9-1.1,2.6-2c0.7-0.9,1.3-1.9,1.7-3.1
				C244.9,129.6,245.1,128.3,245.1,126.7z"/>
			<path class="st3" d="M266.2,127.3h2.3v10.2c-0.4,0.2-1.2,0.4-2.5,0.7c-1.2,0.3-2.7,0.4-4.5,0.4c-1.5,0-2.9-0.3-4.2-0.8
				c-1.3-0.5-2.4-1.3-3.3-2.3c-0.9-1-1.7-2.3-2.2-3.7c-0.5-1.5-0.8-3.2-0.8-5.1s0.3-3.6,0.9-5.1c0.6-1.5,1.4-2.7,2.3-3.7
				c1-1,2.1-1.8,3.4-2.3s2.7-0.8,4.2-0.8c1.7,0,3.1,0.2,4.2,0.5c1.1,0.4,1.9,0.7,2.4,1l-0.8,1.9c-0.6-0.4-1.5-0.8-2.5-1.1
				c-1.1-0.3-2.2-0.4-3.4-0.4c-1.1,0-2.2,0.2-3.2,0.6s-1.9,1-2.6,1.9c-0.8,0.8-1.3,1.9-1.8,3.1c-0.4,1.2-0.6,2.7-0.6,4.3
				c0,1.5,0.2,2.9,0.5,4.1c0.4,1.2,0.9,2.3,1.6,3.1c0.7,0.9,1.6,1.5,2.7,2s2.3,0.7,3.7,0.7c1.1,0,2.1-0.1,2.8-0.2
				c0.8-0.1,1.3-0.2,1.5-0.3L266.2,127.3L266.2,127.3z"/>
			<path class="st3" d="M288.4,122.1c0,1.7-0.5,3.1-1.4,4.1s-2.1,1.7-3.6,2.2c0.4,0.4,0.8,1,1.4,1.8s1.1,1.6,1.7,2.5
				c0.6,0.9,1.2,1.8,1.8,2.8c0.6,1,1.1,1.9,1.5,2.8h-2.4c-0.5-0.9-1-1.8-1.5-2.6c-0.5-0.9-1.1-1.7-1.7-2.6c-0.6-0.8-1.1-1.6-1.6-2.3
				c-0.5-0.7-1-1.3-1.4-1.9c-0.7,0.1-1.4,0.1-2.1,0.1h-3.7v9.3h-2.3v-22.5c0.8-0.2,1.7-0.4,2.8-0.5c1.1-0.1,2.1-0.1,3-0.1
				c3.2,0,5.5,0.6,7.1,1.8C287.6,118,288.4,119.8,288.4,122.1z M279.2,117c-0.8,0-1.6,0-2.2,0.1s-1.2,0.1-1.6,0.1v9.8h3.1
				c1,0,2,0,2.9-0.1s1.7-0.3,2.4-0.7c0.7-0.3,1.2-0.8,1.6-1.5c0.4-0.6,0.6-1.5,0.6-2.6c0-1-0.2-1.9-0.6-2.5s-0.9-1.2-1.6-1.6
				c-0.6-0.4-1.4-0.7-2.2-0.8S280,117,279.2,117z"/>
			<path class="st3" d="M309.4,138.2c-0.4-1.1-0.8-2.2-1.2-3.3s-0.7-2.1-1.1-3H296c-0.4,1-0.8,2-1.1,3c-0.4,1-0.8,2.1-1.2,3.2h-2.4
				c0.9-2.4,1.7-4.6,2.5-6.7c0.8-2.1,1.5-4,2.3-5.9c0.7-1.8,1.5-3.6,2.2-5.3c0.7-1.7,1.5-3.4,2.3-5.1h2c0.8,1.7,1.6,3.4,2.3,5.1
				c0.7,1.7,1.5,3.5,2.2,5.3s1.5,3.8,2.3,5.9s1.6,4.3,2.5,6.7h-2.5V138.2z M301.5,117.8c-0.8,1.9-1.6,3.8-2.4,5.8s-1.6,4.1-2.4,6.3
				h9.8c-0.8-2.3-1.7-4.4-2.5-6.4S302.4,119.7,301.5,117.8z"/>
			<path class="st3" d="M325,134.9c-0.2-0.6-0.5-1.3-0.9-2.2c-0.4-0.9-0.9-1.9-1.4-3c-0.5-1.1-1-2.2-1.6-3.3c-0.5-1.1-1-2.2-1.5-3.2
				s-0.9-1.9-1.3-2.6c-0.4-0.8-0.7-1.3-0.8-1.6c-0.3,2.8-0.5,5.8-0.7,9s-0.3,6.6-0.4,10.2h-2.2c0.2-4.2,0.4-8.2,0.7-12
				c0.3-3.8,0.6-7.5,0.9-11h2c0.7,1.1,1.4,2.4,2.1,3.8c0.8,1.4,1.5,2.9,2.2,4.5s1.5,3.1,2.2,4.6c0.7,1.5,1.3,2.9,1.8,4.1
				c0.5-1.2,1.1-2.6,1.8-4.1c0.7-1.5,1.4-3,2.2-4.6c0.7-1.6,1.5-3.1,2.2-4.5c0.8-1.4,1.5-2.7,2.1-3.8h1.9c0.4,3.5,0.7,7.1,0.9,11
				c0.3,3.8,0.5,7.8,0.7,12h-2.3c-0.1-3.6-0.3-6.9-0.4-10.2c-0.2-3.2-0.4-6.2-0.7-9c-0.2,0.3-0.5,0.8-0.8,1.6
				c-0.4,0.8-0.8,1.6-1.3,2.6s-1,2.1-1.5,3.2s-1,2.2-1.6,3.3c-0.5,1.1-1,2.1-1.4,3c-0.4,0.9-0.7,1.6-0.9,2.2H325z"/>
			<path class="st3" d="M353,134.9c-0.2-0.6-0.5-1.3-0.9-2.2c-0.4-0.9-0.9-1.9-1.4-3c-0.5-1.1-1-2.2-1.6-3.3c-0.5-1.1-1-2.2-1.5-3.2
				s-0.9-1.9-1.3-2.6c-0.4-0.8-0.7-1.3-0.8-1.6c-0.3,2.8-0.5,5.8-0.7,9s-0.3,6.6-0.4,10.2h-2.2c0.2-4.2,0.4-8.2,0.7-12
				c0.3-3.8,0.6-7.5,0.9-11h2c0.7,1.1,1.4,2.4,2.1,3.8c0.8,1.4,1.5,2.9,2.2,4.5s1.5,3.1,2.2,4.6c0.7,1.5,1.3,2.9,1.8,4.1
				c0.5-1.2,1.1-2.6,1.8-4.1c0.7-1.5,1.4-3,2.2-4.6c0.7-1.6,1.5-3.1,2.2-4.5c0.8-1.4,1.5-2.7,2.1-3.8h1.9c0.4,3.5,0.7,7.1,0.9,11
				c0.3,3.8,0.5,7.8,0.7,12h-2.3c-0.1-3.6-0.3-6.9-0.4-10.2c-0.2-3.2-0.4-6.2-0.7-9c-0.2,0.3-0.5,0.8-0.8,1.6
				c-0.4,0.8-0.8,1.6-1.3,2.6s-1,2.1-1.5,3.2s-1,2.2-1.6,3.3c-0.5,1.1-1,2.1-1.4,3c-0.4,0.9-0.7,1.6-0.9,2.2H353z"/>
			<path class="st3" d="M370.8,115.3h2.3v22.9h-2.3V115.3z"/>
			<path class="st3" d="M378.4,138.2v-22.9h13.2v2h-11v8h9.8v1.9h-9.8v9.1h11.9v2h-14.1V138.2z"/>
			<path class="st3" d="M411.5,122.1c0,1.7-0.5,3.1-1.4,4.1s-2.1,1.7-3.6,2.2c0.4,0.4,0.8,1,1.4,1.8s1.1,1.6,1.7,2.5
				c0.6,0.9,1.2,1.8,1.8,2.8c0.6,1,1.1,1.9,1.5,2.8h-2.4c-0.5-0.9-1-1.8-1.5-2.6c-0.5-0.9-1.1-1.7-1.7-2.6c-0.6-0.8-1.1-1.6-1.6-2.3
				c-0.5-0.7-1-1.3-1.4-1.9c-0.7,0.1-1.4,0.1-2.1,0.1h-3.7v9.3h-2.3v-22.5c0.8-0.2,1.7-0.4,2.8-0.5c1.1-0.1,2.1-0.1,3-0.1
				c3.2,0,5.5,0.6,7.1,1.8C410.7,118,411.5,119.8,411.5,122.1z M402.3,117c-0.8,0-1.6,0-2.2,0.1s-1.2,0.1-1.6,0.1v9.8h3.1
				c1,0,2,0,2.9-0.1s1.7-0.3,2.4-0.7c0.7-0.3,1.2-0.8,1.6-1.5c0.4-0.6,0.6-1.5,0.6-2.6c0-1-0.2-1.9-0.6-2.5s-0.9-1.2-1.6-1.6
				c-0.6-0.4-1.4-0.7-2.2-0.8S403.1,117,402.3,117z"/>
			<path class="st3" d="M424.4,138.7c-1.5,0-2.8-0.2-3.9-0.7s-1.9-1.1-2.6-1.9c-0.7-0.8-1.1-1.8-1.4-2.9c-0.3-1.1-0.4-2.3-0.4-3.5
				v-14.4h2.3v14.1c0,1.3,0.1,2.3,0.4,3.3c0.3,0.9,0.7,1.7,1.2,2.3s1.2,1,1.9,1.3s1.6,0.4,2.5,0.4s1.8-0.1,2.5-0.4
				c0.8-0.3,1.4-0.7,1.9-1.3s0.9-1.4,1.2-2.3c0.3-0.9,0.4-2,0.4-3.3v-14.1h2.3v14.4c0,1.3-0.1,2.4-0.4,3.5s-0.8,2-1.4,2.9
				c-0.7,0.8-1.5,1.5-2.6,1.9C427.2,138.5,425.9,138.7,424.4,138.7z"/>
			<path class="st3" d="M453.7,138.2c-0.4-0.8-1-1.7-1.6-2.7s-1.4-2.2-2.1-3.3c-0.8-1.2-1.6-2.4-2.5-3.6c-0.9-1.2-1.7-2.5-2.6-3.7
				c-0.8-1.2-1.7-2.3-2.5-3.3s-1.5-1.9-2.2-2.7v19.3H438v-22.9h1.8c1.1,1.3,2.3,2.7,3.6,4.4s2.5,3.3,3.8,5c1.2,1.7,2.4,3.4,3.5,5
				c1.1,1.6,2,3.1,2.6,4.3v-18.7h2.2v22.9H453.7z"/>
			<path class="st3" d="M475.3,127.3h2.3v10.2c-0.4,0.2-1.2,0.4-2.5,0.7c-1.2,0.3-2.7,0.4-4.5,0.4c-1.5,0-2.9-0.3-4.2-0.8
				c-1.3-0.5-2.4-1.3-3.3-2.3s-1.7-2.3-2.2-3.7c-0.5-1.5-0.8-3.2-0.8-5.1s0.3-3.6,0.9-5.1s1.4-2.7,2.3-3.7c1-1,2.1-1.8,3.4-2.3
				s2.7-0.8,4.2-0.8c1.7,0,3.1,0.2,4.2,0.5c1.1,0.4,1.9,0.7,2.4,1l-0.8,1.9c-0.6-0.4-1.5-0.8-2.5-1.1c-1.1-0.3-2.2-0.4-3.4-0.4
				c-1.1,0-2.2,0.2-3.2,0.6s-1.9,1-2.6,1.9c-0.8,0.8-1.3,1.9-1.8,3.1c-0.4,1.2-0.6,2.7-0.6,4.3c0,1.5,0.2,2.9,0.5,4.1
				c0.4,1.2,0.9,2.3,1.6,3.1c0.7,0.9,1.6,1.5,2.7,2s2.3,0.7,3.7,0.7c1.1,0,2.1-0.1,2.8-0.2c0.8-0.1,1.3-0.2,1.5-0.3v-8.7H475.3z"/>
			<path class="st4" d="M489.5,112.3h2.1v32h-2.1V112.3z"/>
			<path class="st0" d="M509.2,136.7c1.8,0,3.2-0.3,4.2-1s1.5-1.7,1.5-3.2c0-0.8-0.2-1.5-0.5-2.1c-0.3-0.6-0.7-1-1.3-1.4
				c-0.6-0.4-1.1-0.7-1.8-1s-1.4-0.6-2.2-0.9c-0.9-0.4-1.8-0.8-2.5-1.2c-0.8-0.4-1.4-0.8-1.9-1.3s-0.9-1.1-1.2-1.7
				c-0.3-0.6-0.4-1.4-0.4-2.3c0-2,0.7-3.5,2-4.5s3.1-1.5,5.4-1.5c0.6,0,1.2,0,1.8,0.1c0.6,0.1,1.2,0.2,1.7,0.3
				c0.5,0.1,1,0.3,1.4,0.5s0.8,0.4,1.1,0.6l-0.8,1.9c-0.6-0.4-1.4-0.8-2.3-1.1s-1.9-0.4-3-0.4c-0.7,0-1.4,0.1-2,0.2
				s-1.1,0.4-1.6,0.7c-0.4,0.3-0.8,0.7-1,1.2c-0.3,0.5-0.4,1.1-0.4,1.8c0,0.7,0.1,1.3,0.4,1.8s0.6,0.9,1.1,1.3s1,0.7,1.7,1
				c0.6,0.3,1.3,0.6,2.1,0.9c0.9,0.4,1.8,0.8,2.6,1.1c0.8,0.4,1.5,0.8,2.1,1.3s1.1,1.1,1.4,1.9c0.4,0.7,0.5,1.6,0.5,2.7
				c0,2.1-0.7,3.6-2.2,4.7c-1.4,1-3.4,1.6-5.9,1.6c-0.9,0-1.7-0.1-2.4-0.2c-0.7-0.1-1.4-0.2-2-0.4s-1.1-0.3-1.5-0.5
				s-0.7-0.3-0.9-0.5l0.7-2c0.2,0.1,0.5,0.3,0.9,0.5s0.8,0.3,1.3,0.5s1.1,0.3,1.7,0.4S508.5,136.7,509.2,136.7z"/>
			<path class="st0" d="M531.2,134.9c-0.2-0.6-0.5-1.3-0.9-2.2c-0.4-0.9-0.9-1.9-1.4-3c-0.5-1.1-1-2.2-1.6-3.3
				c-0.5-1.1-1-2.2-1.5-3.2s-0.9-1.9-1.3-2.6c-0.4-0.8-0.7-1.3-0.8-1.6c-0.3,2.8-0.5,5.8-0.7,9s-0.3,6.6-0.4,10.2h-2.2
				c0.2-4.2,0.4-8.2,0.7-12s0.6-7.5,0.9-11h2c0.7,1.1,1.4,2.4,2.1,3.8c0.8,1.4,1.5,2.9,2.2,4.5s1.5,3.1,2.2,4.6
				c0.7,1.5,1.3,2.9,1.8,4.1c0.5-1.2,1.1-2.6,1.8-4.1c0.7-1.5,1.4-3,2.2-4.6c0.7-1.6,1.5-3.1,2.2-4.5c0.8-1.4,1.5-2.7,2.1-3.8h1.9
				c0.4,3.5,0.7,7.1,0.9,11c0.3,3.8,0.5,7.8,0.7,12h-2.3c-0.1-3.6-0.3-6.9-0.4-10.2c-0.2-3.2-0.4-6.2-0.7-9
				c-0.2,0.3-0.5,0.8-0.8,1.6c-0.4,0.8-0.8,1.6-1.3,2.6s-1,2.1-1.5,3.2s-1,2.2-1.6,3.3c-0.5,1.1-1,2.1-1.4,3
				c-0.4,0.9-0.7,1.6-0.9,2.2H531.2z"/>
			<path class="st0" d="M564.4,138.2c-0.4-1.1-0.8-2.2-1.2-3.3c-0.4-1-0.7-2.1-1.1-3h-11.2c-0.4,1-0.8,2-1.1,3
				c-0.4,1-0.8,2.1-1.2,3.2h-2.4c0.9-2.4,1.7-4.6,2.5-6.7c0.8-2.1,1.5-4,2.3-5.9c0.7-1.8,1.5-3.6,2.2-5.3c0.7-1.7,1.5-3.4,2.3-5.1h2
				c0.8,1.7,1.6,3.4,2.3,5.1s1.5,3.5,2.2,5.3s1.5,3.8,2.3,5.9s1.6,4.3,2.5,6.7h-2.4V138.2z M556.5,117.8c-0.8,1.9-1.6,3.8-2.4,5.8
				c-0.8,2-1.6,4.1-2.4,6.3h9.8c-0.8-2.3-1.7-4.4-2.5-6.4S557.3,119.7,556.5,117.8z"/>
			<path class="st0" d="M584.9,122.1c0,1.7-0.5,3.1-1.4,4.1s-2.1,1.7-3.6,2.2c0.4,0.4,0.8,1,1.4,1.8c0.6,0.8,1.1,1.6,1.7,2.5
				c0.6,0.9,1.2,1.8,1.8,2.8s1.1,1.9,1.5,2.8h-2.4c-0.5-0.9-1-1.8-1.5-2.6s-1.1-1.7-1.7-2.6c-0.6-0.8-1.1-1.6-1.6-2.3
				c-0.5-0.7-1-1.3-1.4-1.9c-0.7,0.1-1.4,0.1-2.1,0.1h-3.7v9.3h-2.3v-22.5c0.8-0.2,1.7-0.4,2.8-0.5s2.1-0.1,3-0.1
				c3.2,0,5.5,0.6,7.1,1.8C584.1,118,584.9,119.8,584.9,122.1z M575.6,117c-0.8,0-1.6,0-2.2,0.1c-0.6,0.1-1.2,0.1-1.6,0.1v9.8h3.1
				c1,0,2,0,2.9-0.1s1.7-0.3,2.4-0.7c0.7-0.3,1.2-0.8,1.6-1.5c0.4-0.6,0.6-1.5,0.6-2.6c0-1-0.2-1.9-0.6-2.5
				c-0.4-0.7-0.9-1.2-1.6-1.6c-0.6-0.4-1.4-0.7-2.2-0.8C577.4,117.1,576.5,117,575.6,117z"/>
			<path class="st0" d="M604.1,115.3v2h-7.4v21h-2.3v-21H587v-2C587,115.3,604.1,115.3,604.1,115.3z"/>
			<path class="st0" d="M628.8,115.3h2.3v22.9h-2.3v-11h-12.4v11h-2.3v-22.9h2.3v10h12.4V115.3z"/>
			<path class="st0" d="M657,126.7c0,2-0.3,3.7-0.9,5.2c-0.6,1.5-1.4,2.8-2.3,3.8c-1,1-2.1,1.8-3.4,2.3c-1.3,0.5-2.7,0.8-4.1,0.8
				s-2.8-0.3-4.1-0.8s-2.4-1.3-3.4-2.3s-1.8-2.3-2.3-3.8c-0.6-1.5-0.9-3.2-0.9-5.2s0.3-3.7,0.9-5.2c0.6-1.5,1.4-2.7,2.3-3.7
				c1-1,2.1-1.8,3.4-2.3c1.3-0.5,2.7-0.8,4.1-0.8s2.8,0.3,4.1,0.8s2.4,1.3,3.4,2.3s1.8,2.3,2.3,3.7C656.7,123,657,124.7,657,126.7z
				 M654.6,126.7c0-1.5-0.2-2.9-0.6-4.2c-0.4-1.2-1-2.3-1.7-3.1c-0.7-0.9-1.6-1.5-2.6-2s-2.2-0.7-3.5-0.7s-2.4,0.2-3.5,0.7
				c-1,0.5-1.9,1.1-2.6,2c-0.7,0.9-1.3,1.9-1.7,3.1s-0.6,2.6-0.6,4.2c0,1.5,0.2,2.9,0.6,4.2c0.4,1.2,1,2.3,1.7,3.1
				c0.7,0.9,1.6,1.5,2.6,2s2.2,0.7,3.5,0.7s2.4-0.2,3.5-0.7c1-0.5,1.9-1.1,2.6-2c0.7-0.9,1.3-1.9,1.7-3.1
				C654.4,129.6,654.6,128.3,654.6,126.7z"/>
			<path class="st0" d="M671.8,134.9c-0.2-0.6-0.5-1.3-0.9-2.2c-0.4-0.9-0.9-1.9-1.4-3c-0.5-1.1-1-2.2-1.6-3.3
				c-0.5-1.1-1-2.2-1.5-3.2s-0.9-1.9-1.3-2.6c-0.4-0.8-0.7-1.3-0.8-1.6c-0.3,2.8-0.5,5.8-0.7,9s-0.3,6.6-0.4,10.2H661
				c0.2-4.2,0.4-8.2,0.7-12s0.6-7.5,0.9-11h2c0.7,1.1,1.4,2.4,2.1,3.8c0.8,1.4,1.5,2.9,2.2,4.5s1.5,3.1,2.2,4.6
				c0.7,1.5,1.3,2.9,1.8,4.1c0.5-1.2,1.1-2.6,1.8-4.1c0.7-1.5,1.4-3,2.2-4.6c0.7-1.6,1.5-3.1,2.2-4.5c0.8-1.4,1.5-2.7,2.1-3.8h1.9
				c0.4,3.5,0.7,7.1,0.9,11c0.3,3.8,0.5,7.8,0.7,12h-2.3c-0.1-3.6-0.3-6.9-0.4-10.2c-0.2-3.2-0.4-6.2-0.7-9
				c-0.2,0.3-0.5,0.8-0.8,1.6c-0.4,0.8-0.8,1.6-1.3,2.6s-1,2.1-1.5,3.2s-1,2.2-1.6,3.3c-0.5,1.1-1,2.1-1.4,3
				c-0.4,0.9-0.7,1.6-0.9,2.2H671.8z"/>
			<path class="st0" d="M689.5,138.2v-22.9h13.2v2h-11v8h9.8v1.9h-9.8v9.1h11.9v2h-14.1V138.2z"/>
			<path class="st4" d="M714.7,112.3h2.1v32h-2.1V112.3z"/>
			<path class="st5" d="M743.7,127.3h2.3v10.2c-0.4,0.2-1.2,0.4-2.5,0.7c-1.2,0.3-2.7,0.4-4.5,0.4c-1.5,0-2.9-0.3-4.2-0.8
				s-2.4-1.3-3.3-2.3c-0.9-1-1.7-2.3-2.2-3.7c-0.5-1.5-0.8-3.2-0.8-5.1s0.3-3.6,0.9-5.1c0.6-1.5,1.4-2.7,2.3-3.7
				c1-1,2.1-1.8,3.4-2.3c1.3-0.5,2.7-0.8,4.2-0.8c1.7,0,3.1,0.2,4.2,0.5c1.1,0.4,1.9,0.7,2.4,1l-0.8,1.9c-0.6-0.4-1.5-0.8-2.5-1.1
				c-1.1-0.3-2.2-0.4-3.4-0.4c-1.1,0-2.2,0.2-3.2,0.6s-1.9,1-2.6,1.9c-0.8,0.8-1.3,1.9-1.8,3.1c-0.4,1.2-0.6,2.7-0.6,4.3
				c0,1.5,0.2,2.9,0.5,4.1c0.4,1.2,0.9,2.3,1.6,3.1c0.7,0.9,1.6,1.5,2.7,2c1.1,0.5,2.3,0.7,3.7,0.7c1.1,0,2.1-0.1,2.8-0.2
				c0.8-0.1,1.3-0.2,1.5-0.3v-8.7H743.7z"/>
			<path class="st5" d="M766,122.1c0,1.7-0.5,3.1-1.4,4.1s-2.1,1.7-3.6,2.2c0.4,0.4,0.8,1,1.4,1.8c0.6,0.8,1.1,1.6,1.7,2.5
				c0.6,0.9,1.2,1.8,1.8,2.8s1.1,1.9,1.5,2.8H765c-0.5-0.9-1-1.8-1.5-2.6s-1.1-1.7-1.7-2.6c-0.6-0.8-1.1-1.6-1.6-2.3
				c-0.5-0.7-1-1.3-1.4-1.9c-0.7,0.1-1.4,0.1-2.1,0.1H753v9.3h-2.3v-22.5c0.8-0.2,1.7-0.4,2.8-0.5s2.1-0.1,3-0.1
				c3.2,0,5.5,0.6,7.1,1.8C765.2,118,766,119.8,766,122.1z M756.7,117c-0.8,0-1.6,0-2.2,0.1c-0.6,0.1-1.2,0.1-1.6,0.1v9.8h3.1
				c1,0,2,0,2.9-0.1s1.7-0.3,2.4-0.7c0.7-0.3,1.2-0.8,1.6-1.5c0.4-0.6,0.6-1.5,0.6-2.6c0-1-0.2-1.9-0.6-2.5
				c-0.4-0.7-0.9-1.2-1.6-1.6c-0.6-0.4-1.4-0.7-2.2-0.8C758.4,117.1,757.6,117,756.7,117z"/>
			<path class="st5" d="M787,138.2c-0.4-1.1-0.8-2.2-1.2-3.3c-0.4-1-0.7-2.1-1.1-3h-11.2c-0.4,1-0.8,2-1.1,3c-0.4,1-0.8,2.1-1.2,3.2
				h-2.4c0.9-2.4,1.7-4.6,2.5-6.7c0.8-2.1,1.5-4,2.3-5.9s1.5-3.6,2.2-5.3s1.5-3.4,2.3-5.1h2c0.8,1.7,1.6,3.4,2.3,5.1
				s1.5,3.5,2.2,5.3s1.5,3.8,2.3,5.9s1.6,4.3,2.5,6.7H787V138.2z M779.1,117.8c-0.8,1.9-1.6,3.8-2.4,5.8c-0.8,2-1.6,4.1-2.4,6.3h9.8
				c-0.8-2.3-1.7-4.4-2.5-6.4S779.9,119.7,779.1,117.8z"/>
			<path class="st5" d="M792.2,138.2v-22.9h13.1v2h-10.8v8.1h9.6v2h-9.6v11h-2.3V138.2z"/>
			<path class="st5" d="M808.8,115.3h2.3v22.9h-2.3V115.3z"/>
			<path class="st5" d="M830.5,138.2c-0.8-1.1-1.6-2.3-2.5-3.4c-0.9-1.1-1.9-2.2-3-3.2c-1-1-2.1-1.9-3.2-2.7
				c-1.1-0.8-2.1-1.5-3.1-2.1v11.4h-2.3v-22.9h2.3V126c0.8-0.7,1.8-1.6,2.8-2.6s2-2,3-3s2-1.9,2.8-2.8c0.9-0.9,1.6-1.7,2.1-2.3h2.7
				c-0.6,0.7-1.4,1.5-2.3,2.4s-1.9,1.9-2.9,2.9s-2,2-3,2.9c-1,1-1.9,1.8-2.7,2.5c0.6,0.4,1.3,0.9,2.1,1.5s1.5,1.2,2.3,1.9
				c0.8,0.7,1.5,1.4,2.3,2.2c0.8,0.8,1.4,1.5,2.1,2.3s1.2,1.5,1.8,2.3s0.9,1.4,1.3,2H830.5z"/>
			<path class="st5" d="M853.9,126.7c0,2-0.3,3.7-0.9,5.1c-0.6,1.5-1.5,2.7-2.6,3.6c-1.1,1-2.4,1.7-4,2.2s-3.2,0.7-5.1,0.7
				c-0.9,0-1.9,0-2.9-0.1s-1.9-0.2-2.7-0.4v-22.1c0.8-0.2,1.7-0.4,2.7-0.5s2-0.1,2.9-0.1c1.9,0,3.6,0.2,5.1,0.7s2.9,1.2,4,2.2
				s2,2.2,2.6,3.6S853.9,124.8,853.9,126.7z M838,136.2c0.1,0,0.5,0.1,1,0.1c0.5,0.1,1.4,0.1,2.6,0.1c1.7,0,3.1-0.2,4.3-0.7
				s2.3-1.1,3.1-1.9c0.8-0.8,1.5-1.9,1.9-3.1s0.6-2.6,0.6-4.1s-0.2-2.8-0.6-4c-0.4-1.2-1-2.2-1.9-3c-0.8-0.8-1.9-1.5-3.1-1.9
				c-1.2-0.5-2.7-0.7-4.3-0.7c-1.2,0-2.1,0-2.6,0.1s-0.9,0.1-1,0.1V136.2z"/>
			<path class="st5" d="M858.4,138.2v-22.9h13.2v2h-11v8h9.8v1.9h-9.8v9.1h11.9v2h-14.1V138.2z"/>
			<path class="st5" d="M881.1,136.7c1.8,0,3.2-0.3,4.2-1s1.5-1.7,1.5-3.2c0-0.8-0.2-1.5-0.5-2.1c-0.3-0.6-0.7-1-1.3-1.4
				c-0.5-0.4-1.1-0.7-1.8-1s-1.4-0.6-2.2-0.9c-0.9-0.4-1.8-0.8-2.5-1.2c-0.8-0.4-1.4-0.8-1.9-1.3s-0.9-1.1-1.2-1.7s-0.4-1.4-0.4-2.3
				c0-2,0.7-3.5,2-4.5s3.1-1.5,5.4-1.5c0.6,0,1.2,0,1.8,0.1s1.2,0.2,1.7,0.3s1,0.3,1.4,0.5s0.8,0.4,1.1,0.6l-0.8,1.9
				c-0.6-0.4-1.4-0.8-2.3-1.1s-1.9-0.4-3-0.4c-0.7,0-1.4,0.1-2,0.2s-1.1,0.4-1.6,0.7s-0.8,0.7-1,1.2c-0.3,0.5-0.4,1.1-0.4,1.8
				c0,0.7,0.1,1.3,0.4,1.8s0.6,0.9,1.1,1.3s1,0.7,1.7,1c0.6,0.3,1.3,0.6,2.1,0.9c0.9,0.4,1.8,0.8,2.6,1.1c0.8,0.4,1.5,0.8,2.1,1.3
				s1.1,1.1,1.4,1.9c0.4,0.7,0.5,1.6,0.5,2.7c0,2.1-0.7,3.6-2.2,4.7c-1.4,1-3.4,1.6-5.9,1.6c-0.9,0-1.7-0.1-2.4-0.2s-1.4-0.2-2-0.4
				s-1.1-0.3-1.5-0.5s-0.7-0.3-0.9-0.5l0.7-2c0.2,0.1,0.5,0.3,0.9,0.5s0.8,0.3,1.3,0.5s1.1,0.3,1.7,0.4
				C879.7,136.7,880.4,136.7,881.1,136.7z"/>
			<path class="st5" d="M892.8,115.3h2.3v22.9h-2.3V115.3z"/>
			<path class="st5" d="M914.7,127.3h2.3v10.2c-0.4,0.2-1.2,0.4-2.5,0.7c-1.2,0.3-2.7,0.4-4.5,0.4c-1.5,0-2.9-0.3-4.2-0.8
				s-2.4-1.3-3.3-2.3c-0.9-1-1.7-2.3-2.2-3.7c-0.5-1.5-0.8-3.2-0.8-5.1s0.3-3.6,0.9-5.1c0.6-1.5,1.4-2.7,2.3-3.7
				c1-1,2.1-1.8,3.4-2.3c1.3-0.5,2.7-0.8,4.2-0.8c1.7,0,3.1,0.2,4.2,0.5c1.1,0.4,1.9,0.7,2.4,1l-0.8,1.9c-0.6-0.4-1.5-0.8-2.5-1.1
				c-1.1-0.3-2.2-0.4-3.4-0.4c-1.1,0-2.2,0.2-3.2,0.6s-1.9,1-2.6,1.9c-0.8,0.8-1.3,1.9-1.8,3.1c-0.4,1.2-0.6,2.7-0.6,4.3
				c0,1.5,0.2,2.9,0.5,4.1c0.4,1.2,0.9,2.3,1.6,3.1c0.7,0.9,1.6,1.5,2.7,2c1.1,0.5,2.3,0.7,3.7,0.7c1.1,0,2.1-0.1,2.8-0.2
				c0.8-0.1,1.3-0.2,1.5-0.3v-8.7H914.7z"/>
			<path class="st5" d="M937.3,138.2c-0.4-0.8-1-1.7-1.6-2.7s-1.4-2.2-2.1-3.3c-0.8-1.2-1.6-2.4-2.5-3.6c-0.9-1.2-1.7-2.5-2.6-3.7
				s-1.7-2.3-2.5-3.3s-1.5-1.9-2.2-2.7v19.3h-2.2v-22.9h1.8c1.1,1.3,2.3,2.7,3.6,4.4s2.5,3.3,3.8,5c1.2,1.7,2.4,3.4,3.5,5
				c1.1,1.6,2,3.1,2.6,4.3v-18.7h2.2v22.9H937.3z"/>
			<path class="st4" d="M951.9,112.3h2.1v32h-2.1V112.3z"/>
			<path class="st6" d="M977,134.9c-0.2-0.6-0.5-1.3-0.9-2.2c-0.4-0.9-0.9-1.9-1.4-3c-0.5-1.1-1-2.2-1.6-3.3c-0.5-1.1-1-2.2-1.5-3.2
				s-0.9-1.9-1.3-2.6c-0.4-0.8-0.7-1.3-0.8-1.6c-0.3,2.8-0.5,5.8-0.7,9s-0.3,6.6-0.4,10.2h-2.2c0.2-4.2,0.4-8.2,0.7-12
				s0.6-7.5,0.9-11h2c0.7,1.1,1.4,2.4,2.1,3.8c0.8,1.4,1.5,2.9,2.2,4.5s1.5,3.1,2.2,4.6c0.7,1.5,1.3,2.9,1.8,4.1
				c0.5-1.2,1.1-2.6,1.8-4.1c0.7-1.5,1.4-3,2.2-4.6c0.7-1.6,1.5-3.1,2.2-4.5c0.8-1.4,1.5-2.7,2.1-3.8h1.9c0.4,3.5,0.7,7.1,0.9,11
				c0.3,3.8,0.5,7.8,0.7,12h-2.3c-0.1-3.6-0.3-6.9-0.4-10.2c-0.2-3.2-0.4-6.2-0.7-9c-0.2,0.3-0.5,0.8-0.8,1.6
				c-0.4,0.8-0.8,1.6-1.3,2.6s-1,2.1-1.5,3.2s-1,2.2-1.6,3.3c-0.5,1.1-1,2.1-1.4,3c-0.4,0.9-0.7,1.6-0.9,2.2H977z"/>
			<path class="st6" d="M1003,138.7c-1.5,0-2.8-0.2-3.9-0.7c-1.1-0.5-1.9-1.1-2.6-1.9c-0.7-0.8-1.1-1.8-1.4-2.9
				c-0.3-1.1-0.4-2.3-0.4-3.5v-14.4h2.3v14.1c0,1.3,0.1,2.3,0.4,3.3s0.7,1.7,1.2,2.3s1.2,1,1.9,1.3c0.8,0.3,1.6,0.4,2.5,0.4
				s1.8-0.1,2.5-0.4c0.8-0.3,1.4-0.7,1.9-1.3s0.9-1.4,1.2-2.3s0.4-2,0.4-3.3v-14.1h2.3v14.4c0,1.3-0.1,2.4-0.4,3.5
				c-0.3,1.1-0.8,2-1.4,2.9c-0.7,0.8-1.5,1.5-2.6,1.9C1005.8,138.5,1004.5,138.7,1003,138.7z"/>
			<path class="st6" d="M1029.7,136.2v2h-13v-22.9h2.3v21h10.7V136.2z"/>
			<path class="st6" d="M1043.9,115.3v2h-7.4v21h-2.3v-21h-7.4v-2C1026.8,115.3,1043.9,115.3,1043.9,115.3z"/>
			<path class="st6" d="M1046.9,115.3h2.3v22.9h-2.3V115.3z"/>
			<path class="st6" d="M1064.9,134.9c-0.2-0.6-0.5-1.3-0.9-2.2c-0.4-0.9-0.9-1.9-1.4-3c-0.5-1.1-1-2.2-1.6-3.3
				c-0.5-1.1-1-2.2-1.5-3.2s-0.9-1.9-1.3-2.6c-0.4-0.8-0.7-1.3-0.8-1.6c-0.3,2.8-0.5,5.8-0.7,9s-0.3,6.6-0.4,10.2h-2.2
				c0.2-4.2,0.4-8.2,0.7-12s0.6-7.5,0.9-11h2c0.7,1.1,1.4,2.4,2.1,3.8c0.8,1.4,1.5,2.9,2.2,4.5s1.5,3.1,2.2,4.6
				c0.7,1.5,1.3,2.9,1.8,4.1c0.5-1.2,1.1-2.6,1.8-4.1c0.7-1.5,1.4-3,2.2-4.6c0.7-1.6,1.5-3.1,2.2-4.5c0.8-1.4,1.5-2.7,2.1-3.8h1.9
				c0.4,3.5,0.7,7.1,0.9,11c0.3,3.8,0.5,7.8,0.7,12h-2.3c-0.1-3.6-0.3-6.9-0.4-10.2c-0.2-3.2-0.4-6.2-0.7-9
				c-0.2,0.3-0.5,0.8-0.8,1.6c-0.4,0.8-0.8,1.6-1.3,2.6s-1,2.1-1.5,3.2s-1,2.2-1.6,3.3c-0.5,1.1-1,2.1-1.4,3
				c-0.4,0.9-0.7,1.6-0.9,2.2H1064.9z"/>
			<path class="st6" d="M1082.6,138.2v-22.9h13.2v2h-11v8h9.8v1.9h-9.8v9.1h11.9v2h-14.1V138.2z"/>
			<path class="st6" d="M1118.7,126.7c0,2-0.3,3.7-0.9,5.1c-0.6,1.5-1.5,2.7-2.6,3.6c-1.1,1-2.4,1.7-4,2.2s-3.2,0.7-5.1,0.7
				c-0.9,0-1.9,0-2.9-0.1s-1.9-0.2-2.7-0.4v-22.1c0.8-0.2,1.7-0.4,2.7-0.5s2-0.1,2.9-0.1c1.9,0,3.6,0.2,5.1,0.7s2.9,1.2,4,2.2
				s2,2.2,2.6,3.6S1118.7,124.8,1118.7,126.7z M1102.7,136.2c0.1,0,0.5,0.1,1,0.1c0.5,0.1,1.4,0.1,2.6,0.1c1.7,0,3.1-0.2,4.3-0.7
				c1.2-0.5,2.3-1.1,3.1-1.9c0.8-0.8,1.5-1.9,1.9-3.1s0.6-2.6,0.6-4.1s-0.2-2.8-0.6-4s-1-2.2-1.9-3c-0.8-0.8-1.9-1.5-3.1-1.9
				c-1.2-0.5-2.7-0.7-4.3-0.7c-1.2,0-2.1,0-2.6,0.1s-0.9,0.1-1,0.1V136.2z"/>
			<path class="st6" d="M1123.1,115.3h2.3v22.9h-2.3V115.3z"/>
			<path class="st6" d="M1146.2,138.2c-0.4-1.1-0.8-2.2-1.2-3.3c-0.4-1-0.7-2.1-1.1-3h-11.2c-0.4,1-0.8,2-1.1,3
				c-0.4,1-0.8,2.1-1.2,3.2h-2.4c0.9-2.4,1.7-4.6,2.5-6.7c0.8-2.1,1.5-4,2.3-5.9s1.5-3.6,2.2-5.3s1.5-3.4,2.3-5.1h2
				c0.8,1.7,1.6,3.4,2.3,5.1c0.7,1.7,1.5,3.5,2.2,5.3s1.5,3.8,2.3,5.9s1.6,4.3,2.5,6.7h-2.4V138.2z M1138.4,117.8
				c-0.8,1.9-1.6,3.8-2.4,5.8s-1.6,4.1-2.4,6.3h9.8c-0.8-2.3-1.7-4.4-2.5-6.4S1139.2,119.7,1138.4,117.8z"/>
		</g>
	</g>
</g>
</svg>
